# xmcd
#
# Track frame offsets:
#	150
#	7270
#	19865
#	37392
#	55323
#	72334
#	91602
#	109867
#	125429
#	140796
#	156470
#	159257
#	176937
#	196860
#	214248
#	220420
#	242461
#
# Disc length: 3447 seconds
#
# Revision: 1
# Processed by: cddbd v1.5.1PL0 Copyright (c) Steve Scherf et al.
# Submitted via: EasyCDDAExtractor 8.0.2.1
#
DISCID=010d7511
DTITLE=Hurricane G - All Woman
DYEAR=1999
DGENRE=Hip-Hop
TTITLE0=Intro
TTITLE1=All The Way Live
TTITLE2=Underground Lockdown
TTITLE3=Roc U
TTITLE4=Somebody Else
TTITLE5=El Barrio [Spanish]
TTITLE6=Mama
TTITLE7=Wuteva
TTITLE8=Boriqua Mami
TTITLE9=Coast To Coast
TTITLE10=G, Toya and Nini
TTITLE11=No Love
TTITLE12=Neva Give Up
TTITLE13=De Corazon
TTITLE14=Outro
TTITLE15=La Bita [Spanish]
TTITLE16=Ain't Gonna Be A Next Time
EXTD=
EXTT0=
EXTT1=
EXTT2=
EXTT3=
EXTT4=
EXTT5=
EXTT6=
EXTT7=
EXTT8=
EXTT9=
EXTT10=
EXTT11=
EXTT12=
EXTT13=
EXTT14=
EXTT15=
EXTT16=
PLAYORDER=
